Coordinates
version=1
nRows=5
nColumns=40
inDegrees=yes

Units are S.I. units (second, meters, Newtons, ...)
If the header above contains a line with 'inDegrees', this indicates whether rotational values are in degrees (yes) or radians (no).

endheader
time	pelvis_tilt	pelvis_list	pelvis_rotation	pelvis_tx	pelvis_ty	pelvis_tz	hip_flexion_r	hip_adduction_r	hip_rotation_r	knee_angle_r	knee_angle_r_beta	ankle_angle_r	subtalar_angle_r	mtp_angle_r	hip_flexion_l	hip_adduction_l	hip_rotation_l	knee_angle_l	knee_angle_l_beta	ankle_angle_l	subtalar_angle_l	mtp_angle_l	lumbar_extension	lumbar_bending	lumbar_rotation	arm_flex_r	arm_add_r	arm_rot_r	elbow_flex_r	pro_sup_r	wrist_flex_r	wrist_dev_r	arm_flex_l	arm_add_l	arm_rot_l	elbow_flex_l	pro_sup_l	wrist_flex_l	wrist_dev_l
      1.00000000	      7.39222537	      3.37096167	      3.08355024	     -0.31737310	      1.03378573	     -0.79133407	     -0.38748487	      0.33050392	     -4.13711922	     11.75225526	      0.20511555	     -0.91631845	      0.00000000	      0.00000000	     13.88639066	      3.65533760	      3.48965026	     34.48691759	      0.60191026	     -0.41944756	      0.00000000	      0.00000000	    -20.18106649	     -2.84016717	     -3.13201856	     78.10112576	    -14.49339075	     18.91292641	     47.63881942	     87.55053800	      0.00000000	      0.00000000	     81.49595985	    -10.27028348	     22.11276253	     43.87160038	     86.87247203	      0.00000000	      0.00000000
      1.00500000	      7.38892395	      3.39969189	      3.07641426	     -0.31776251	      1.03387291	     -0.79085145	     -0.36709480	      0.32830681	     -4.16275978	     11.70727852	      0.20433056	     -1.06334364	      0.00000000	      0.00000000	     14.10568871	      3.70551926	      3.53362597	     34.34933567	      0.59950900	     -0.34436158	      0.00000000	      0.00000000	    -20.23091283	     -2.87514824	     -3.11624163	     78.09582092	    -14.42198996	     18.68194076	     47.59864037	     87.61606202	      0.00000000	      0.00000000	     81.48814184	    -10.25804550	     22.03971023	     43.87819362	     86.75965087	      0.00000000	      0.00000000
      1.01000000	      7.37193155	      3.42844112	      3.06923953	     -0.31826241	      1.03389551	     -0.79033931	     -0.24076343	      0.31593302	     -4.24238490	     11.87292181	      0.20722158	     -1.02249512	      0.00000000	      0.00000000	     14.36279644	      3.77586895	      3.58487263	     34.16736761	      0.59633306	     -0.22043013	      0.00000000	      0.00000000	    -20.28888384	     -2.90781690	     -3.10023543	     78.15708520	    -14.47031283	     18.81324294	     47.62741383	     87.51049243	      0.00000000	      0.00000000	     81.54712878	    -10.27610115	     22.05096178	     43.85035352	     86.93707527	      0.00000000	      0.00000000
      1.01500000	      7.37295055	      3.47696623	      3.03807093	     -0.31868272	      1.03399250	     -0.78976407	     -0.18706710	      0.29135626	     -4.28228425	     11.91125144	      0.20789056	     -1.14425941	      0.00000000	      0.00000000	     14.55071772	      3.83736634	      3.58931033	     33.90557352	      0.59176389	     -0.10799112	      0.00000000	      0.00000000	    -20.35847437	     -2.98151863	     -3.07575791	     78.15315429	    -14.37897726	     18.51109561	     47.59505218	     87.63921113	      0.00000000	      0.00000000	     81.60326615	    -10.33880968	     22.24794517	     43.89743255	     86.67419626	      0.00000000	      0.00000000
      1.02000000	      7.36251259	      3.53822806	      2.97663294	     -0.31913490	      1.03406995	     -0.78925421	     -0.06836806	      0.24230991	     -4.25543552	     12.06468158	      0.21056842	     -1.08341623	      0.00000000	      0.00000000	     14.73906059	      3.93106458	      3.63991200	     33.58244920	      0.58612431	     -0.15774170	      0.00000000	      0.00000000	    -20.41721372	     -3.05607544	     -3.01595394	     78.23948478	    -14.40465293	     18.65212736	     47.53981419	     87.53286462	      0.00000000	      0.00000000	     81.62918175	    -10.33081188	     22.15592492	     43.85290453	     86.94521380	      0.00000000	      0.00000000
